<?xml version="1.0" standalone="no"?>
<!DOCTYPE svg PUBLIC "-//W3C//DTD SVG 1.1//EN" "http://www.w3.org/Graphics/SVG/1.1/DTD/svg11.dtd" >
<svg xmlns="http://www.w3.org/2000/svg" xmlns:xlink="http://www.w3.org/1999/xlink" version="1.1">
<metadata></metadata>
<defs>
<font id="big_noodle_titlingregular" horiz-adv-x="782" >
<font-face units-per-em="2048" ascent="2048" descent="0" />
<missing-glyph horiz-adv-x="327" />
<glyph horiz-adv-x="0" />
<glyph horiz-adv-x="682" />
<glyph unicode=" "  horiz-adv-x="327" />
<glyph unicode="&#x09;" horiz-adv-x="327" />
<glyph unicode="&#xa0;" horiz-adv-x="327" />
<glyph unicode="!" horiz-adv-x="364" d="M74 1470h217l-25 -1073h-166zM82 0v250h209v-250h-209z" />
<glyph unicode="&#x22;" horiz-adv-x="612" d="M61 1470h195l-25 -487h-145zM356 1470h195l-25 -487h-145z" />
<glyph unicode="#" horiz-adv-x="952" d="M0 360l16 140h162l60 481h-162l16 139h162l43 350h139l-43 -350h207l43 350h139l-43 -350h152l-17 -139h-151l-59 -481h151l-16 -140h-154l-43 -360h-139l43 360h-207l-43 -360h-139l43 360h-160zM317 500h207l60 481h-207z" />
<glyph unicode="$" horiz-adv-x="778" d="M72 270v113h196v-143q0 -62 60 -62h84q60 0 57 62v270q0 38 -10.5 52t-38.5 28l-248 155q-61 41 -75.5 75t-14.5 100v299q0 248 227 251v156h142v-158q206 -15 206 -249v-144h-196v154q3 63 -62 63h-57q-66 0 -63 -65v-283q0 -26 9 -42.5t17.5 -22t32.5 -17.5l246 -147 q52 -31 67 -63.5t15 -102.5v-301q0 -239 -222 -248v-156h-141v156q-231 3 -231 270z" />
<glyph unicode="%" horiz-adv-x="1425" d="M82 858v438q0 174 176 174h80q178 0 178 -174v-438q0 -174 -178 -174h-80q-176 0 -176 174zM238 848q0 -37 36 -37h45q41 0 41 37v461q0 32 -41 32h-45q-36 0 -36 -32v-461zM416 0l467 1470h125l-467 -1470h-125zM909 174v438q0 174 176 174h80q178 0 178 -174v-438 q0 -174 -178 -174h-80q-176 0 -176 174zM1065 164q0 -37 37 -37h45q41 0 41 37v461q0 32 -41 32h-45q-37 0 -37 -32v-461z" />
<glyph unicode="&#x26;" horiz-adv-x="763" d="M82 229v355q0 152 135 176q-111 30 -111 168v327q0 215 216 215h118q215 0 215 -215v-165h-184v161q0 56 -59 56h-62q-59 -12 -59 -56v-358q0 -70 61 -70h391v-145h-88v-449q0 -229 -217 -229h-139q-217 0 -217 229zM266 217q0 -53 49 -53h105q51 0 51 53v461h-129 q-76 0 -76 -80v-381z" />
<glyph unicode="'" horiz-adv-x="317" d="M61 1470h195l-25 -507h-145z" />
<glyph unicode="(" horiz-adv-x="421" d="M102 250v969q0 251 226 251h94v-155h-62q-86 0 -86 -105v-952q0 -104 86 -104h62v-154h-94q-226 0 -226 250z" />
<glyph unicode=")" horiz-adv-x="421" d="M0 0v154h61q86 0 86 104v952q0 105 -86 105h-61v155h94q225 0 225 -251v-969q0 -250 -225 -250h-94z" />
<glyph unicode="*" horiz-adv-x="729" d="M61 1253l119 160l144 -147l16 12l16 211l193 -64l-103 -184l9 -14l207 49l6 -180l-201 28l-8 -14l123 -162l-168 -96l-58 209l-18 6l-150 -156l-114 150l184 88l-4 18z" />
<glyph unicode="+" horiz-adv-x="780" d="M82 635v172h225v237h180v-237h211v-172h-211v-229h-180v229h-225z" />
<glyph unicode="," horiz-adv-x="342" d="M61 0v254h220v-254l-99 -244h-119l95 244h-97z" />
<glyph unicode="-" horiz-adv-x="491" d="M20 641v164h451v-164h-451z" />
<glyph unicode="." horiz-adv-x="372" d="M82 0v250h209v-250h-209z" />
<glyph unicode="/" horiz-adv-x="546" d="M-20 -102l448 1675h139l-450 -1675h-137z" />
<glyph unicode="0" horiz-adv-x="792" d="M92 252v967q0 251 236 251h137q235 0 235 -251v-967q0 -252 -235 -252h-137q-236 0 -236 252zM289 248q0 -70 59 -70h94q62 0 62 72v975q0 67 -72 67h-76q-67 0 -67 -67v-977z" />
<glyph unicode="1" horiz-adv-x="495" d="M14 1274q97 56 148 100q39 33 82 96h20l129 -69v-1401h-194v1184l-109 -62z" />
<glyph unicode="2" horiz-adv-x="755" d="M76 1055v164q0 251 235 251h103q235 0 235 -251v-347q0 -42 -11 -72.5t-40 -66.5l-270 -315q-6 -8 -10 -16t-6.5 -13.5t-3.5 -15t-1 -12.5v-15.5v-15.5v-154h332v-176h-528v360q0 57 12 90t49 74l256 305q18 19 21.5 31t3.5 43v334q0 55 -54 55h-67q-60 0 -60 -57v-180 h-196z" />
<glyph unicode="3" horiz-adv-x="763" d="M72 1055v164q0 251 235 251h115q235 0 235 -251v-314q0 -128 -129 -149q154 -21 154 -146v-360q0 -250 -236 -250h-133q-235 0 -235 250v135h196v-141q0 -66 58 -66h94q59 0 59 66v327q0 93 -94 93h-74v165h58q86 0 86 80v316q0 65 -64 65h-71q-58 0 -58 -65v-170h-196z " />
<glyph unicode="4" horiz-adv-x="751" d="M55 438l299 1032h254v-1021h113v-166h-113v-283h-192v283h-283q-28 0 -41.5 11t-19.5 44zM240 449h182l31 774h-11z" />
<glyph unicode="5" horiz-adv-x="745" d="M82 250v115h197v-129q0 -58 57 -58h76q55 0 55 58v401q0 59 -70 59h-309v774h555v-182h-371v-414h174q218 0 218 -200v-414q0 -260 -236 -260h-111q-235 0 -235 250z" />
<glyph unicode="6" horiz-adv-x="788" d="M92 227v992q0 251 225 251h142q225 0 225 -251v-146h-197v154q0 65 -67 65h-72q-59 0 -59 -65v-389l123 4h59q225 0 225 -252v-342q0 -248 -225 -248h-154q-225 0 -225 227zM289 244q0 -66 59 -66h92q60 0 60 64v354q0 68 -68 68h-143v-420z" />
<glyph unicode="7" horiz-adv-x="620" d="M20 1288v182h515l55 -106l-262 -1364h-195l254 1288h-367z" />
<glyph unicode="8" horiz-adv-x="784" d="M82 250v303q0 170 156 197q-142 30 -142 157v312q0 251 236 251h121q235 0 235 -251v-314q0 -127 -129 -157q143 -21 143 -197v-301q0 -250 -235 -250h-150q-235 0 -235 250zM279 285q0 -107 88 -107h51q88 0 88 107v305q0 74 -74 74h-90q-63 -3 -63 -74v-305zM293 903 q0 -69 59 -69h78q59 3 62 71v322q0 63 -70 63h-62q-67 0 -67 -63v-324z" />
<glyph unicode="9" horiz-adv-x="784" d="M92 801v411q0 258 236 258h129q235 0 235 -258v-950q0 -262 -235 -262h-117q-236 0 -236 262v103h197v-121q0 -66 59 -66h84q52 0 52 66v297l-168 -2q-236 0 -236 262zM289 788q0 -71 67 -71h140v516q0 59 -76 59h-64q-67 0 -67 -59v-445z" />
<glyph unicode=":" horiz-adv-x="372" d="M82 0v250h209v-250h-209zM82 1194v250h209v-250h-209z" />
<glyph unicode=";" horiz-adv-x="382" d="M82 0v254h219v-254l-98 -244h-119l94 244h-96zM82 1194v250h209v-250h-209z" />
<glyph unicode="&#x3c;" horiz-adv-x="610" d="M41 569v129l508 476v-244l-326 -297l326 -295v-240z" />
<glyph unicode="=" horiz-adv-x="757" d="M82 455v168h594v-168h-594zM82 786v168h594v-168h-594z" />
<glyph unicode="&#x3e;" horiz-adv-x="610" d="M61 94v244l326 297l-326 295v239l508 -469v-131z" />
<glyph unicode="?" horiz-adv-x="770" d="M51 1096v123q0 251 236 251h168q233 0 233 -251v-291q0 -45 -9 -72t-19.5 -39t-41.5 -39l-137 -104q-24 -18 -30.5 -35t-6.5 -59v-183h-196v248q0 34 2 54t13.5 38t17.5 24t32 30l142 104q24 20 30.5 37t6.5 59v211q0 90 -86 90h-76q-82 0 -82 -90v-106h-197zM246 0v250 h209v-250h-209z" />
<glyph unicode="@" horiz-adv-x="1124" d="M92 0v1092q0 185 99 282.5t264 95.5h184q220 0 305 -94q88 -88 88 -239v-920h-381v356h-159v-356h-146v840q0 186 174 186h103q174 0 174 -186v-719h100v788q0 110 -61.5 163.5t-190.5 53.5h-184q-115 -1 -174.5 -65t-59.5 -178v-971h805v-129h-940zM492 707h159v372 q0 33 -49 33h-61q-49 0 -49 -33v-372z" />
<glyph unicode="A" d="M82 0v1219q0 251 235 251h148q235 0 235 -251v-1219h-196v539h-225v-539h-197zM279 717h225v489q0 86 -86 86h-53q-86 0 -86 -86v-489z" />
<glyph unicode="B" d="M92 0v1470h316q262 0 262 -266v-311q-3 -131 -121 -166q162 0 162 -158v-350q0 -219 -224 -219h-395zM289 164h164q61 0 61 63v310q0 104 -117 104h-108v-477zM289 805h88q56 0 76 20.5t20 75.5v299q0 107 -88 107h-96v-502z" />
<glyph unicode="C" horiz-adv-x="751" d="M92 250v971q0 249 236 249h127q235 0 235 -249v-207h-196v207q0 86 -88 86h-39q-78 0 -78 -86v-971q0 -86 78 -86h49q78 0 78 86v135h196v-135q0 -250 -235 -250h-127q-236 0 -236 250z" />
<glyph unicode="D" horiz-adv-x="792" d="M92 0v1470h342q277 0 277 -282v-975q0 -213 -236 -213h-383zM289 178h147q78 0 78 66v942q0 106 -88 106h-137v-1114z" />
<glyph unicode="E" horiz-adv-x="587" d="M92 0v1470h434v-163h-237v-502h237v-164h-237v-477h237v-164h-434z" />
<glyph unicode="F" horiz-adv-x="587" d="M92 0v1470h434v-163h-237v-502h237v-164h-237v-641h-197z" />
<glyph unicode="G" horiz-adv-x="798" d="M92 250v971q0 249 236 249h127q235 0 235 -249v-207h-196v192q0 86 -88 86h-39q-78 0 -78 -86v-942q0 -86 88 -86h131v381h-119v164h316l2 -723h-379q-236 0 -236 250z" />
<glyph unicode="H" horiz-adv-x="802" d="M92 0v1470h197v-665h225v665h197v-1470h-197v641h-225v-641h-197z" />
<glyph unicode="I" horiz-adv-x="380" d="M92 0v1470h197v-1470h-197z" />
<glyph unicode="J" horiz-adv-x="546" d="M41 0v164h156q61 0 61 78v1228h197v-1222q0 -248 -228 -248h-186z" />
<glyph unicode="K" horiz-adv-x="724" d="M92 0v1470h197v-741l211 741h180l-213 -733l258 -737h-197l-239 717v-717h-197z" />
<glyph unicode="L" horiz-adv-x="567" d="M92 0v1470h197v-1306h237v-164h-434z" />
<glyph unicode="M" horiz-adv-x="983" d="M92 0v1470h217l183 -864l182 864h217v-1470h-197l21 963l-148 -697h-151l-148 697l21 -963h-197z" />
<glyph unicode="N" horiz-adv-x="788" d="M92 0v1470h197l211 -710v710h196v-1470h-196v293l-211 670v-963h-197z" />
<glyph unicode="O" horiz-adv-x="823" d="M92 250v969q0 251 236 251h168q235 0 235 -251v-969q0 -250 -237 -250h-164q-238 0 -238 250zM289 240q0 -76 78 -76h100q68 0 68 76v991q0 76 -78 76h-92q-76 0 -76 -76v-991z" />
<glyph unicode="P" horiz-adv-x="761" d="M92 0v1470h371q237 0 237 -251v-336q0 -155 -97 -239.5t-281 -84.5h-33v-559h-197zM289 723h33q93 0 137.5 35t44.5 112v371q2 32 -16 49t-54 17h-145v-584z" />
<glyph unicode="Q" horiz-adv-x="823" d="M92 250v969q0 251 236 251h168q235 0 235 -251v-1055h92v-164h-493q-238 0 -238 250zM289 240q0 -76 78 -76h168v1067q0 76 -78 76h-92q-76 0 -76 -76v-991z" />
<glyph unicode="R" horiz-adv-x="763" d="M72 0v1470h385q225 0 225 -251v-363q0 -192 -117 -244l137 -612h-186l-129 594h-119v-594h-196zM268 762h129q88 0 88 106v318q0 106 -88 106h-129v-530z" />
<glyph unicode="S" horiz-adv-x="757" d="M82 270v113h197v-158q0 -61 59 -61h84q57 0 57 55v6v299q0 38 -10.5 52t-38.5 28l-248 156q-61 41 -75.5 74.5t-14.5 99.5v285q0 251 236 251h104q236 0 236 -251v-205h-197v229v6q0 58 -61 58h-58q-63 0 -63 -60v-6v-297q0 -26 9 -42.5t17.5 -22t32.5 -17.5l246 -147 q52 -31 67 -63.5t15 -102.5v-301q0 -248 -238 -248h-121q-235 0 -235 270z" />
<glyph unicode="T" horiz-adv-x="614" d="M20 1307v163h574v-163h-188v-1307h-197v1307h-189z" />
<glyph unicode="U" horiz-adv-x="802" d="M92 281v1189h197v-1196q0 -49 20 -72.5t66 -23.5h49q90 0 90 96v1196h197v-1191q0 -279 -281 -279h-59q-279 0 -279 281z" />
<glyph unicode="V" horiz-adv-x="749" d="M20 1470h195l160 -1122l160 1122h194l-237 -1470h-234z" />
<glyph unicode="W" horiz-adv-x="1140" d="M20 1470h195l139 -1101l140 1101h153l139 -1101l140 1101h194l-217 -1470h-213l-121 852l-118 -852h-213z" />
<glyph unicode="X" horiz-adv-x="675" d="M20 0l207 750l-186 720h178l117 -481h4l117 481h178l-189 -720l209 -750h-176l-139 514h-4l-139 -514h-177z" />
<glyph unicode="Y" horiz-adv-x="716" d="M20 1470h195l147 -639h7l133 639h194l-237 -929v-541h-197v541z" />
<glyph unicode="Z" horiz-adv-x="620" d="M51 141l318 1164h-285v165h473l10 -139l-309 -1167h311v-164h-506z" />
<glyph unicode="[" horiz-adv-x="460" d="M102 0v1470h318v-145h-148v-1180h148v-145h-318z" />
<glyph unicode="\" horiz-adv-x="546" d="M-20 1573h139l448 -1675h-137z" />
<glyph unicode="]" horiz-adv-x="460" d="M41 0v145h147v1180h-147v145h317v-1470h-317z" />
<glyph unicode="^" horiz-adv-x="843" d="M61 1200l299 270h123l299 -270h-192l-168 152l-168 -152h-193z" />
<glyph unicode="_" horiz-adv-x="563" d="M-20 0h604v-145h-604v145z" />
<glyph unicode="`" horiz-adv-x="397" d="M61 1393h181l94 -263h-139z" />
<glyph unicode="a" d="M82 0v1219q0 251 235 251h148q235 0 235 -251v-1219h-196v539h-225v-539h-197zM279 717h225v489q0 86 -86 86h-53q-86 0 -86 -86v-489z" />
<glyph unicode="b" d="M92 0v1470h316q262 0 262 -266v-311q-3 -131 -121 -166q162 0 162 -158v-350q0 -219 -224 -219h-395zM289 164h164q61 0 61 63v310q0 104 -117 104h-108v-477zM289 805h88q56 0 76 20.5t20 75.5v299q0 107 -88 107h-96v-502z" />
<glyph unicode="c" horiz-adv-x="751" d="M92 250v971q0 249 236 249h127q235 0 235 -249v-207h-196v207q0 86 -88 86h-39q-78 0 -78 -86v-971q0 -86 78 -86h49q78 0 78 86v135h196v-135q0 -250 -235 -250h-127q-236 0 -236 250z" />
<glyph unicode="d" horiz-adv-x="792" d="M92 0v1470h342q277 0 277 -282v-975q0 -213 -236 -213h-383zM289 178h147q78 0 78 66v942q0 106 -88 106h-137v-1114z" />
<glyph unicode="e" horiz-adv-x="587" d="M92 0v1470h434v-163h-237v-502h237v-164h-237v-477h237v-164h-434z" />
<glyph unicode="f" horiz-adv-x="587" d="M92 0v1470h434v-163h-237v-502h237v-164h-237v-641h-197z" />
<glyph unicode="g" horiz-adv-x="798" d="M92 250v971q0 249 236 249h127q235 0 235 -249v-207h-196v192q0 86 -88 86h-39q-78 0 -78 -86v-942q0 -86 88 -86h131v381h-119v164h316l2 -723h-379q-236 0 -236 250z" />
<glyph unicode="h" horiz-adv-x="802" d="M92 0v1470h197v-665h225v665h197v-1470h-197v641h-225v-641h-197z" />
<glyph unicode="i" horiz-adv-x="380" d="M92 0v1470h197v-1470h-197z" />
<glyph unicode="j" horiz-adv-x="546" d="M41 0v164h156q61 0 61 78v1228h197v-1222q0 -248 -228 -248h-186z" />
<glyph unicode="k" horiz-adv-x="724" d="M92 0v1470h197v-741l211 741h180l-213 -733l258 -737h-197l-239 717v-717h-197z" />
<glyph unicode="l" horiz-adv-x="567" d="M92 0v1470h197v-1306h237v-164h-434z" />
<glyph unicode="m" horiz-adv-x="983" d="M92 0v1470h217l183 -864l182 864h217v-1470h-197l21 963l-148 -697h-151l-148 697l21 -963h-197z" />
<glyph unicode="n" horiz-adv-x="788" d="M92 0v1470h197l211 -710v710h196v-1470h-196v293l-211 670v-963h-197z" />
<glyph unicode="o" horiz-adv-x="823" d="M92 250v969q0 251 236 251h168q235 0 235 -251v-969q0 -250 -237 -250h-164q-238 0 -238 250zM289 240q0 -76 78 -76h100q68 0 68 76v991q0 76 -78 76h-92q-76 0 -76 -76v-991z" />
<glyph unicode="p" horiz-adv-x="761" d="M92 0v1470h371q237 0 237 -251v-336q0 -155 -97 -239.5t-281 -84.5h-33v-559h-197zM289 723h33q93 0 137.5 35t44.5 112v371q2 32 -16 49t-54 17h-145v-584z" />
<glyph unicode="q" horiz-adv-x="823" d="M92 250v969q0 251 236 251h168q235 0 235 -251v-1055h92v-164h-493q-238 0 -238 250zM289 240q0 -76 78 -76h168v1067q0 76 -78 76h-92q-76 0 -76 -76v-991z" />
<glyph unicode="r" horiz-adv-x="763" d="M72 0v1470h385q225 0 225 -251v-363q0 -192 -117 -244l137 -612h-186l-129 594h-119v-594h-196zM268 762h129q88 0 88 106v318q0 106 -88 106h-129v-530z" />
<glyph unicode="s" horiz-adv-x="757" d="M82 270v113h197v-158q0 -61 59 -61h84q57 0 57 55v6v299q0 38 -10.5 52t-38.5 28l-248 156q-61 41 -75.5 74.5t-14.5 99.5v285q0 251 236 251h104q236 0 236 -251v-205h-197v229v6q0 58 -61 58h-58q-63 0 -63 -60v-6v-297q0 -26 9 -42.5t17.5 -22t32.5 -17.5l246 -147 q52 -31 67 -63.5t15 -102.5v-301q0 -248 -238 -248h-121q-235 0 -235 270z" />
<glyph unicode="t" horiz-adv-x="614" d="M20 1307v163h574v-163h-188v-1307h-197v1307h-189z" />
<glyph unicode="u" horiz-adv-x="802" d="M92 281v1189h197v-1196q0 -49 20 -72.5t66 -23.5h49q90 0 90 96v1196h197v-1191q0 -279 -281 -279h-59q-279 0 -279 281z" />
<glyph unicode="v" horiz-adv-x="749" d="M20 1470h195l160 -1122l160 1122h194l-237 -1470h-234z" />
<glyph unicode="w" horiz-adv-x="1140" d="M20 1470h195l139 -1101l140 1101h153l139 -1101l140 1101h194l-217 -1470h-213l-121 852l-118 -852h-213z" />
<glyph unicode="x" horiz-adv-x="675" d="M20 0l207 750l-186 720h178l117 -481h4l117 481h178l-189 -720l209 -750h-176l-139 514h-4l-139 -514h-177z" />
<glyph unicode="y" horiz-adv-x="716" d="M20 1470h195l147 -639h7l133 639h194l-237 -929v-541h-197v541z" />
<glyph unicode="z" horiz-adv-x="620" d="M51 141l318 1164h-285v165h473l10 -139l-309 -1167h311v-164h-506z" />
<glyph unicode="{" horiz-adv-x="518" d="M41 772v166q117 0 117 106v379q0 252 227 252h92v-141h-59q-88 0 -88 -104v-412q0 -131 -129 -158q129 -40 129 -176v-438q0 -105 88 -105h59v-141h-92q-227 0 -227 252v414q0 106 -117 106z" />
<glyph unicode="|" horiz-adv-x="425" d="M143 -205v1880h140v-1880h-140z" />
<glyph unicode="}" horiz-adv-x="518" d="M41 0v141h59q88 0 88 105v459q0 135 129 176q-129 27 -129 157v392q0 104 -88 104h-59v141h92q227 0 227 -252v-358q0 -107 117 -107v-165q-117 0 -117 -107v-434q0 -252 -227 -252h-92z" />
<glyph unicode="~" horiz-adv-x="899" d="M82 1227q0 59 15.5 104.5t39 72t55 43t58.5 22.5t55 6q43 0 87.5 -25.5t85 -50.5t75.5 -25q43 0 74.5 23t31.5 73h158q0 -59 -16 -104t-40.5 -71t-58.5 -42.5t-65 -22t-64 -5.5q-44 0 -95.5 24.5t-95.5 49t-71 24.5q-82 0 -82 -96h-147z" />
<glyph unicode="&#xa1;" horiz-adv-x="399" d="M94 0l25 1073h166l26 -1073h-217zM94 1221v249h209v-249h-209z" />
<glyph unicode="&#xa2;" horiz-adv-x="731" d="M82 502v637q0 209 194 209h7v122h143v-122h6q197 0 197 -209v-92h-176v75q0 80 -84 80h-19q-84 0 -84 -80v-604q0 -80 84 -80h19q84 0 84 80v70h176v-86q0 -209 -197 -209h-6v-123h-143v123h-4q-197 0 -197 209z" />
<glyph unicode="&#xa3;" horiz-adv-x="880" d="M61 0v178h74v494h-74v157h74v390q0 251 236 251h159q238 0 238 -251v-109h-197v96q0 86 -90 86h-63q-86 0 -86 -86v-377h246l-21 -157h-225v-494h250v191h196v-369h-717z" />
<glyph unicode="&#xa4;" horiz-adv-x="751" d="M20 610v103h72v82h-72v102h72v324q0 249 236 249h127q235 0 235 -249v-207h-196v207q0 86 -88 86h-39q-78 0 -78 -86v-324h231l-37 -102h-194v-82h166l-37 -103h-129v-360q0 -86 78 -86h49q78 0 78 86v135h196v-135q0 -250 -235 -250h-127q-236 0 -236 250v360h-72z" />
<glyph unicode="&#xa5;" horiz-adv-x="798" d="M61 1470h195l147 -659h7l133 659h194l-190 -745h160v-102h-187l-20 -82h207v-103h-207v-438h-197v438h-211v103h211l-22 82h-189v102h162z" />
<glyph unicode="&#xa6;" horiz-adv-x="430" d="M123 -205v754h184v-754h-184zM123 911v764h184v-764h-184z" />
<glyph unicode="&#xa7;" horiz-adv-x="700" d="M82 209v110h178v-96q0 -80 82 -80q80 0 80 80v142q0 36 -11 55t-49 35l-133 49q-69 21 -107 52t-38 91v141q0 98 61 132q-29 23 -40 45.5t-11 58.5v238q0 208 197 208h131q196 0 196 -208v-84h-178v67q0 80 -78 80q-83 0 -83 -80v-153q0 -14 2 -23t11 -16t14 -9.5 t24 -11.5l139 -53q81 -30 103 -48q40 -32 40 -97v-148q0 -86 -69 -123q37 -22 49 -44t12 -60v-250q0 -209 -196 -209h-129q-197 0 -197 209zM268 715q0 -80 84 -80q80 0 80 80v55q0 78 -80 78q-84 0 -84 -78v-55z" />
<glyph unicode="&#xa8;" horiz-adv-x="573" d="M61 1151v205h164v-205h-164zM348 1151v205h164v-205h-164z" />
<glyph unicode="&#xa9;" horiz-adv-x="1216" d="M123 281v925q0 264 260 264h451q260 0 260 -264v-925q0 -281 -260 -281h-451q-260 0 -260 281zM219 264q0 -178 160 -178h455q161 0 161 178v940q0 180 -161 180h-455q-160 0 -160 -180v-940zM362 438v594q0 209 197 209h100q197 0 197 -209v-108h-164v118q0 49 -49 58 h-53q-55 0 -55 -58v-608q0 -63 55 -63h53q55 0 55 63v92h164v-88q0 -209 -196 -209h-107q-197 0 -197 209z" />
<glyph unicode="&#xaa;" horiz-adv-x="606" d="M82 684v606q0 180 174 180h94q174 0 174 -180v-606h-155v272h-131v-272h-156zM238 1083h131v207q0 53 -52 53h-28q-51 0 -51 -53v-207z" />
<glyph unicode="&#xab;" horiz-adv-x="755" d="M41 713l176 344h170l-172 -344l172 -344h-170zM348 713l176 344h170l-172 -344l172 -344h-170z" />
<glyph unicode="&#xac;" horiz-adv-x="851" d="M86 614v172h672v-360h-178v188h-494z" />
<glyph unicode="&#xad;" horiz-adv-x="491" d="M20 641v164h451v-164h-451z" />
<glyph unicode="&#xae;" horiz-adv-x="937" d="M102 557v713q0 200 195 200h344q195 0 195 -200v-713q0 -199 -195 -199h-346q-193 0 -193 199zM174 559q0 -135 123 -135h344q121 0 121 135v709q0 135 -121 135h-344q-123 0 -123 -135v-709zM283 528v772h256q114 0 114 -129v-219q0 -94 -65 -121l76 -303h-119l-68 295 h-63v-295h-131zM414 930h63q47 0 47 57v146q0 55 -47 55h-63v-258z" />
<glyph unicode="&#xaf;" horiz-adv-x="614" d="M61 1233v145h492v-145h-492z" />
<glyph unicode="&#xb0;" horiz-adv-x="561" d="M61 1264q0 91 63.5 155t154.5 64q92 0 156.5 -64t64.5 -155q0 -92 -64.5 -156t-156.5 -64q-91 0 -154.5 64t-63.5 156zM156 1264q0 -50 36 -85.5t87 -35.5q50 0 86 36t36 85q0 53 -36 89t-86 36q-51 0 -87 -35.5t-36 -89.5z" />
<glyph unicode="&#xb1;" horiz-adv-x="821" d="M102 0v174h615v-174h-615zM102 635v172h226v237h180v-237h211v-172h-211v-229h-180v229h-226z" />
<glyph unicode="&#xb2;" horiz-adv-x="575" d="M82 1217v90q0 163 147 163h119q146 0 146 -163v-158q0 -30 -7 -46t-32 -40l-148 -127q-28 -25 -37.5 -36.5t-9.5 -22.5v-19v-47h234v-127h-390v207q0 32 7.5 49.5t38.5 48.5l155 129q25 22 29 33q4 20 4 68v86q0 38 -37 38h-35q-39 0 -39 -38v-88h-145z" />
<glyph unicode="&#xb3;" horiz-adv-x="589" d="M82 823v74h156v-47q0 -39 45 -39h26q43 0 43 43v111q0 55 -41 55l-51 2v121l35 2q45 0 45 47v115q0 36 -43 36h-16q-43 0 -43 -36v-58h-156v76q0 145 141 145h131q142 0 142 -145v-158q0 -67 -82 -82q94 -21 94 -88v-174q0 -139 -141 -139h-144q-141 0 -141 139z" />
<glyph unicode="&#xb4;" horiz-adv-x="397" d="M61 1130l95 263h180l-135 -263h-140z" />
<glyph unicode="&#xb5;" horiz-adv-x="638" d="M72 967l180 503h229v-501h86v-127h-86v-158h-155v158h-234zM225 969h101l20 374h-10z" />
<glyph unicode="&#xb6;" horiz-adv-x="960" d="M82 958v261q0 251 225 251h551v-1675h-145v1528h-346q-88 0 -88 -106v-248q0 -107 88 -107h79v344h160v-1411h-160v901h-139q-225 0 -225 262z" />
<glyph unicode="&#xb7;" horiz-adv-x="331" d="M82 573v250h209v-250h-209z" />
<glyph unicode="&#xb8;" horiz-adv-x="454" d="M102 -281h95q51 0 51 50v28q0 58 -51 58h-82v198h106v-116h19q112 0 112 -119v-78q0 -110 -114 -113h-136v92z" />
<glyph unicode="&#xb9;" horiz-adv-x="430" d="M61 1323q114 55 160 154h10l117 -62v-731h-155v565l-95 -35z" />
<glyph unicode="&#xba;" horiz-adv-x="598" d="M82 858v438q0 174 176 174h80q178 0 178 -174v-438q0 -174 -178 -174h-80q-176 0 -176 174zM238 858q0 -47 45 -47h30q47 0 47 47v436q0 47 -47 47h-30q-45 0 -45 -47v-436z" />
<glyph unicode="&#xbb;" horiz-adv-x="755" d="M61 369l172 344l-172 344h170l177 -344l-177 -344h-170zM369 369l172 344l-172 344h170l176 -344l-176 -344h-170z" />
<glyph unicode="&#xbc;" horiz-adv-x="1298" d="M61 1323q114 55 160 154h10l117 -62v-731h-155v565l-95 -35zM272 0l559 1470h138l-563 -1470h-134zM741 283l181 503h229v-501h86v-127h-86v-158h-156v158h-233zM895 285h100l21 374h-10z" />
<glyph unicode="&#xbd;" horiz-adv-x="1298" d="M61 1323q114 55 160 154h10l117 -62v-731h-155v565l-95 -35zM272 0l559 1470h138l-563 -1470h-134zM825 532v91q0 163 148 163h119q145 0 145 -163v-158q0 -30 -7 -46t-32 -40l-147 -127q-28 -25 -37.5 -36.5t-9.5 -22.5v-19v-47h233v-127h-389v207q0 32 7.5 50t37.5 48 l156 129q24 21 28 33q4 20 4 68v86q0 38 -37 38h-34q-39 0 -39 -38v-89h-146z" />
<glyph unicode="&#xbe;" horiz-adv-x="1298" d="M61 823v74h156v-47q0 -39 45 -39h27q43 0 43 43v111q0 55 -41 55l-51 2v121l34 2q45 0 45 47v115q0 36 -43 36h-16q-43 0 -43 -36v-58h-156v76q0 145 142 145h131q141 0 141 -145v-158q0 -67 -82 -82q94 -21 94 -88v-174q0 -139 -141 -139h-143q-142 0 -142 139zM334 0 l559 1470h137l-563 -1470h-133zM741 283l181 503h229v-501h86v-127h-86v-158h-156v158h-233zM895 285h100l21 374h-10z" />
<glyph unicode="&#xbf;" horiz-adv-x="770" d="M82 252v299q0 45 9 71.5t19.5 38t41.5 35.5l137 107q24 18 30.5 35t6.5 59v176h196v-248q0 -64 -12 -89t-53 -56l-142 -105q-24 -20 -30 -36.5t-6 -59.5v-205q0 -94 65 -94h96q82 0 82 94v50h197v-72q0 -252 -227 -252h-185q-225 0 -225 252zM315 1221v249h209v-249h-209 z" />
<glyph unicode="&#xc0;" d="M82 0v1219q0 251 235 251h148q235 0 235 -251v-1219h-196v539h-225v-539h-197zM207 1825h180l94 -262h-139zM279 717h225v489q0 86 -86 86h-53q-86 0 -86 -86v-489z" />
<glyph unicode="&#xc1;" d="M82 0v1219q0 251 235 251h148q235 0 235 -251v-1219h-196v539h-225v-539h-197zM279 717h225v489q0 86 -86 86h-53q-86 0 -86 -86v-489zM328 1546l94 262h180l-135 -262h-139z" />
<glyph unicode="&#xc2;" d="M82 0v1219q0 251 235 251h148q235 0 235 -251v-1219h-196v539h-225v-539h-197zM158 1567l176 229h123l176 -229h-152l-86 119l-86 -119h-151zM279 717h225v489q0 86 -86 86h-53q-86 0 -86 -86v-489z" />
<glyph unicode="&#xc3;" d="M82 0v1219q0 251 235 251h148q235 0 235 -251v-1219h-196v539h-225v-539h-197zM182 1567q0 83 41 128t105 50q26 0 69.5 -20.5t67.5 -20.5q48 11 51 57h107q-1 -88 -46.5 -135t-111.5 -49q-33 0 -74.5 20.5t-58.5 20.5q-40 0 -49 -51h-101zM279 717h225v489q0 86 -86 86 h-53q-86 0 -86 -86v-489z" />
<glyph unicode="&#xc4;" d="M82 0v1219q0 251 235 251h148q235 0 235 -251v-1219h-196v539h-225v-539h-197zM170 1567v205h164v-205h-164zM279 717h225v489q0 86 -86 86h-53q-86 0 -86 -86v-489zM457 1567v205h164v-205h-164z" />
<glyph unicode="&#xc5;" d="M82 0v1219q0 251 235 251h148q235 0 235 -251v-1219h-196v539h-225v-539h-197zM240 1671q0 68 46 114t109 46q66 0 110 -45.5t44 -114.5q0 -68 -44 -113t-110 -45q-63 0 -109 46t-46 112zM279 717h225v489q0 86 -86 86h-53q-86 0 -86 -86v-489zM326 1671q0 -31 20 -51.5 t49 -20.5t49.5 20.5t20.5 51.5t-20.5 51.5t-49.5 20.5t-49 -20.5t-20 -51.5z" />
<glyph unicode="&#xc6;" horiz-adv-x="1042" d="M82 0v1219q0 251 235 251h674v-178h-291v-446h258v-178h-258v-490h291v-178h-487v539h-225v-539h-197zM279 717h225v575h-139q-86 0 -86 -86v-489z" />
<glyph unicode="&#xc7;" horiz-adv-x="741" d="M92 250v971q0 249 236 249h127q235 0 235 -249v-207h-196v207q0 86 -88 86h-39q-78 0 -78 -86v-971q0 -86 78 -86h49q78 0 78 86v135h196v-135q0 -250 -235 -250h-29v-63h18q113 0 113 -119v-78q0 -110 -115 -113h-135v92h94q52 0 52 50v28q0 58 -52 58h-82v145 q-227 3 -227 250z" />
<glyph unicode="&#xc8;" horiz-adv-x="587" d="M92 0v1470h434v-163h-237v-502h237v-164h-237v-477h237v-164h-434zM117 1808h180l94 -262h-139z" />
<glyph unicode="&#xc9;" horiz-adv-x="587" d="M92 0v1470h434v-163h-237v-502h237v-164h-237v-477h237v-164h-434zM219 1546l94 262h181l-136 -262h-139z" />
<glyph unicode="&#xca;" horiz-adv-x="587" d="M63 1567l177 229h122l177 -229h-152l-86 119l-86 -119h-152zM92 0v1470h434v-163h-237v-502h237v-164h-237v-477h237v-164h-434z" />
<glyph unicode="&#xcb;" horiz-adv-x="587" d="M84 1567v205h164v-205h-164zM92 0v1470h434v-163h-237v-502h237v-164h-237v-477h237v-164h-434zM371 1567v205h164v-205h-164z" />
<glyph unicode="&#xcc;" horiz-adv-x="380" d="M14 1808h181l94 -262h-139zM92 0v1470h197v-1470h-197z" />
<glyph unicode="&#xcd;" horiz-adv-x="380" d="M92 0v1470h197v-1470h-197zM115 1546l94 262h180l-135 -262h-139z" />
<glyph unicode="&#xce;" horiz-adv-x="380" d="M-47 1567l176 229h123l176 -229h-152l-86 119l-86 -119h-151zM92 0v1470h197v-1470h-197z" />
<glyph unicode="&#xcf;" horiz-adv-x="380" d="M-35 1567v205h164v-205h-164zM92 0v1470h197v-1470h-197zM252 1567v205h164v-205h-164z" />
<glyph unicode="&#xd0;" horiz-adv-x="792" d="M20 641v164h72v665h342q277 0 277 -282v-975q0 -213 -236 -213h-383v641h-72zM289 178h147q78 0 78 66v942q0 106 -88 106h-137v-487h129v-164h-129v-463z" />
<glyph unicode="&#xd1;" horiz-adv-x="788" d="M92 0v1470h197l211 -710v710h196v-1470h-196v293l-211 670v-963h-197zM195 1567q0 83 40.5 128t104.5 50q26 0 69.5 -20.5t67.5 -20.5q48 11 51 57h107q-1 -88 -46.5 -135t-111.5 -49q-33 0 -74.5 20.5t-58.5 20.5q-40 0 -49 -51h-100z" />
<glyph unicode="&#xd2;" horiz-adv-x="823" d="M92 250v969q0 251 236 251h168q235 0 235 -251v-969q0 -250 -237 -250h-164q-238 0 -238 250zM223 1808h180l95 -262h-140zM289 240q0 -76 78 -76h100q68 0 68 76v991q0 76 -78 76h-92q-76 0 -76 -76v-991z" />
<glyph unicode="&#xd3;" horiz-adv-x="823" d="M92 250v969q0 251 236 251h168q235 0 235 -251v-969q0 -250 -237 -250h-164q-238 0 -238 250zM289 240q0 -76 78 -76h100q68 0 68 76v991q0 76 -78 76h-92q-76 0 -76 -76v-991zM336 1546l94 262h180l-135 -262h-139z" />
<glyph unicode="&#xd4;" horiz-adv-x="823" d="M92 250v969q0 251 236 251h168q235 0 235 -251v-969q0 -250 -237 -250h-164q-238 0 -238 250zM174 1567l176 229h123l176 -229h-151l-86 119l-86 -119h-152zM289 240q0 -76 78 -76h100q68 0 68 76v991q0 76 -78 76h-92q-76 0 -76 -76v-991z" />
<glyph unicode="&#xd5;" horiz-adv-x="823" d="M92 250v969q0 251 236 251h168q235 0 235 -251v-969q0 -250 -237 -250h-164q-238 0 -238 250zM182 1554q0 83 41 128.5t105 50.5q26 0 69.5 -20.5t67.5 -20.5q48 11 51 57h107q-1 -88 -46.5 -135t-111.5 -49q-33 0 -74.5 20.5t-58.5 20.5q-40 0 -49 -52h-101zM289 240 q0 -76 78 -76h100q68 0 68 76v991q0 76 -78 76h-92q-76 0 -76 -76v-991z" />
<glyph unicode="&#xd6;" horiz-adv-x="823" d="M92 250v969q0 251 236 251h168q235 0 235 -251v-969q0 -250 -237 -250h-164q-238 0 -238 250zM180 1567v205h164v-205h-164zM289 240q0 -76 78 -76h100q68 0 68 76v991q0 76 -78 76h-92q-76 0 -76 -76v-991zM467 1567v205h164v-205h-164z" />
<glyph unicode="&#xd7;" horiz-adv-x="774" d="M68 909l131 127l188 -209l174 193l129 -131l-192 -174l207 -193l-127 -127l-193 207l-174 -190l-131 131l192 172z" />
<glyph unicode="&#xd8;" horiz-adv-x="823" d="M82 250v969q0 251 235 251h185l22 123h92l-24 -133q149 -40 149 -241v-969q0 -250 -237 -250h-187l-22 -123h-92l24 133q-145 44 -145 240zM279 279l188 1013h-102q-86 0 -86 -86v-927zM350 178h117q78 0 78 86v946z" />
<glyph unicode="&#xd9;" horiz-adv-x="802" d="M92 281v1189h197v-1196q0 -49 20 -72.5t66 -23.5h49q90 0 90 96v1196h197v-1191q0 -279 -281 -279h-59q-279 0 -279 281zM205 1808h180l94 -262h-139z" />
<glyph unicode="&#xda;" horiz-adv-x="802" d="M92 281v1189h197v-1196q0 -49 20 -72.5t66 -23.5h49q90 0 90 96v1196h197v-1191q0 -279 -281 -279h-59q-279 0 -279 281zM319 1546l95 262h180l-135 -262h-140z" />
<glyph unicode="&#xdb;" horiz-adv-x="802" d="M92 281v1189h197v-1196q0 -49 20 -72.5t66 -23.5h49q90 0 90 96v1196h197v-1191q0 -279 -281 -279h-59q-279 0 -279 281zM174 1567l176 229h123l176 -229h-151l-86 119l-86 -119h-152z" />
<glyph unicode="&#xdc;" horiz-adv-x="802" d="M92 281v1189h197v-1196q0 -49 20 -72.5t66 -23.5h49q90 0 90 96v1196h197v-1191q0 -279 -281 -279h-59q-279 0 -279 281zM186 1567v205h164v-205h-164zM473 1567v205h164v-205h-164z" />
<glyph unicode="&#xdd;" horiz-adv-x="716" d="M20 1470h195l147 -639h7l133 639h194l-237 -929v-541h-197v541zM279 1546l94 262h180l-135 -262h-139z" />
<glyph unicode="&#xde;" horiz-adv-x="772" d="M92 0v1470h195v-245h190q234 0 234 -252v-264q0 -248 -238 -248h-184v-461h-197zM289 639h147q78 0 78 86v236q0 86 -88 86h-137v-408z" />
<glyph unicode="&#xdf;" horiz-adv-x="864" d="M92 0v1225q0 245 225 245h156q238 0 238 -249v-230q0 -105 -27 -155t-96 -54v-10q215 -6 215 -223v-340q0 -209 -223 -209h-215v178h163q78 0 78 86v291q0 80 -69 80h-78q-20 0 -35.5 15.5t-15.5 39.5v174q0 21 13.5 38.5t37.5 17.5q27 0 41 11.5t14 45.5v225 q0 90 -84 90h-61q-80 0 -80 -90v-1202h-197z" />
<glyph unicode="&#xe0;" d="M82 0v1219q0 251 235 251h148q235 0 235 -251v-1219h-196v539h-225v-539h-197zM207 1823h180l94 -262h-139zM279 717h225v489q0 86 -86 86h-53q-86 0 -86 -86v-489z" />
<glyph unicode="&#xe1;" d="M82 0v1219q0 251 235 251h148q235 0 235 -251v-1219h-196v539h-225v-539h-197zM279 717h225v489q0 86 -86 86h-53q-86 0 -86 -86v-489zM326 1561l94 262h180l-135 -262h-139z" />
<glyph unicode="&#xe2;" d="M82 0v1219v12v24q0 3 1 5.5t1 5.5l6 43l6 20q15 52 56 90l8 6q19 19 53 29l4 2q4 0 6 2q16 5 49 10q5 0 16.5 1t16.5 1h12h148q45 0 76 -8q2 -2 8 -2q8 0 10 -2q4 -3 13.5 -5t13.5 -5q4 -4 8 -4q29 -16 47 -37q15 -15 35 -51l16 -58q8 -31 8 -79v-1219h-196v539h-225 v-539h-197zM158 1581l176 229h123l176 -229h-152l-86 119l-86 -119h-151zM279 717h225v489q0 7 -4 35l-6 14l-2 2q0 2 -3 5l-4 4q-3 5 -8 8q-3 3 -9 6t-9 6q-4 0 -6 2h-4q-2 2 -11 2q-4 2 -20 2h-53q-17 0 -21 -2q-3 0 -7 -1t-7 -1q-2 -2 -6 -2q-11 -4 -15 -8q-8 -3 -14 -12 l-4 -4q-9 -15 -12 -35v-21v-489z" />
<glyph unicode="&#xe3;" d="M82 0v1219q0 251 235 251h148q235 0 235 -251v-1219h-196v539h-225v-539h-197zM172 1561q0 83 40.5 128t104.5 50q26 0 70 -20.5t68 -20.5q48 11 51 57h106q-1 -88 -46 -135t-111 -49q-33 0 -74.5 20.5t-58.5 20.5q-41 0 -50 -51h-100zM279 717h225v489q0 86 -86 86h-53 q-86 0 -86 -86v-489z" />
<glyph unicode="&#xe4;" d="M82 0v1219q0 251 235 251h148q235 0 235 -251v-1219h-196v539h-225v-539h-197zM166 1561v204h164v-204h-164zM279 717h225v489q0 86 -86 86h-53q-86 0 -86 -86v-489zM453 1561v204h163v-204h-163z" />
<glyph unicode="&#xe5;" d="M82 0v1219q0 251 235 251h148q235 0 235 -251v-1219h-196v539h-225v-539h-197zM242 1665q0 68 46 114t109 46q66 0 110 -45.5t44 -114.5q0 -68 -44 -113t-110 -45q-63 0 -109 46t-46 112zM279 717h225v489q0 86 -86 86h-53q-86 0 -86 -86v-489zM328 1665q0 -31 20 -51.5 t49 -20.5t49.5 20.5t20.5 51.5t-20.5 51.5t-49.5 20.5t-49 -20.5t-20 -51.5z" />
<glyph unicode="&#xe6;" horiz-adv-x="1032" d="M82 0v1219q0 251 235 251h674v-178h-291v-446h258v-178h-258v-490h291v-178h-487v539h-225v-539h-197zM279 717h225v575h-139q-86 0 -86 -86v-489z" />
<glyph unicode="&#xe7;" horiz-adv-x="751" d="M92 250v971q0 249 236 249h127q235 0 235 -249v-207h-196v207q0 86 -88 86h-39q-78 0 -78 -86v-971q0 -86 78 -86h49q78 0 78 86v135h196v-135q0 -250 -235 -250h-13v-63h19q112 0 112 -119v-78q0 -110 -114 -113h-135v92h94q51 0 51 50v28q0 58 -51 58h-82v145h-8 q-236 0 -236 250z" />
<glyph unicode="&#xe8;" horiz-adv-x="587" d="M92 0v1470h434v-163h-237v-502h237v-164h-237v-477h237v-164h-434zM135 1823h180l95 -262h-140z" />
<glyph unicode="&#xe9;" horiz-adv-x="587" d="M92 0v1470h434v-163h-237v-502h237v-164h-237v-477h237v-164h-434zM219 1561l94 262h181l-136 -262h-139z" />
<glyph unicode="&#xea;" horiz-adv-x="587" d="M78 1561l176 229h123l176 -229h-152l-86 118l-86 -118h-151zM92 0v1470h434v-163h-237v-502h237v-164h-237v-477h237v-164h-434z" />
<glyph unicode="&#xeb;" horiz-adv-x="587" d="M92 0v1470h434v-163h-237v-502h237v-164h-237v-477h237v-164h-434zM96 1563v204h164v-204h-164zM383 1563v204h164v-204h-164z" />
<glyph unicode="&#xec;" horiz-adv-x="380" d="M23 1802h180l94 -262h-139zM92 0v1470h197v-1470h-197z" />
<glyph unicode="&#xed;" horiz-adv-x="380" d="M92 0v1470h197v-1470h-197zM102 1544l95 262h180l-135 -262h-140z" />
<glyph unicode="&#xee;" horiz-adv-x="380" d="M-57 1567l176 229h123l176 -229h-152l-86 119l-86 -119h-151zM92 0v1470h197v-1470h-197z" />
<glyph unicode="&#xef;" horiz-adv-x="380" d="M-41 1561v204h164v-204h-164zM92 0v1470h197v-1470h-197zM246 1561v204h164v-204h-164z" />
<glyph unicode="&#xf0;" horiz-adv-x="792" d="M25 625v163h67v682h342q277 0 277 -282v-975q0 -213 -236 -213h-383v625h-67zM289 178h147q78 0 78 66v942q0 106 -88 106h-137v-504h141v-163h-141v-447z" />
<glyph unicode="&#xf1;" horiz-adv-x="788" d="M92 0v1470h197l211 -710v710h196v-1470h-196v293l-211 670v-963h-197zM176 1561q0 83 41 128t105 50q26 0 69.5 -20.5t67.5 -20.5q48 11 51 57h106q-1 -88 -46 -135t-111 -49q-33 0 -74.5 20.5t-58.5 20.5q-41 0 -50 -51h-100z" />
<glyph unicode="&#xf2;" horiz-adv-x="823" d="M92 250v969q0 251 236 251h168q235 0 235 -251v-969q0 -250 -237 -250h-164q-238 0 -238 250zM276 1802h181l94 -262h-139zM289 240q0 -76 78 -76h100q68 0 68 76v991q0 76 -78 76h-92q-76 0 -76 -76v-991z" />
<glyph unicode="&#xf3;" horiz-adv-x="823" d="M92 250v969q0 251 236 251h168q235 0 235 -251v-969q0 -250 -237 -250h-164q-238 0 -238 250zM289 240q0 -76 78 -76h100q68 0 68 76v991q0 76 -78 76h-92q-76 0 -76 -76v-991zM334 1540l94 262h180l-135 -262h-139z" />
<glyph unicode="&#xf4;" horiz-adv-x="823" d="M92 250v969q0 251 236 251h168q235 0 235 -251v-969q0 -250 -237 -250h-164q-238 0 -238 250zM168 1561l176 229h123l176 -229h-151l-86 118l-87 -118h-151zM289 240q0 -76 78 -76h100q68 0 68 76v991q0 76 -78 76h-92q-76 0 -76 -76v-991z" />
<glyph unicode="&#xf5;" horiz-adv-x="823" d="M92 250v969q0 251 236 251h168q235 0 235 -251v-969q0 -250 -237 -250h-164q-238 0 -238 250zM182 1561q0 83 41 128t105 50q26 0 69.5 -20.5t67.5 -20.5q48 11 51 57h107q-1 -88 -46.5 -135t-111.5 -49q-33 0 -74.5 20.5t-58.5 20.5q-40 0 -49 -51h-101zM289 240 q0 -76 78 -76h100q68 0 68 76v991q0 76 -78 76h-92q-76 0 -76 -76v-991z" />
<glyph unicode="&#xf6;" horiz-adv-x="823" d="M92 250v969q0 251 236 251h168q235 0 235 -251v-969q0 -250 -237 -250h-164q-238 0 -238 250zM184 1561v204h164v-204h-164zM289 240q0 -76 78 -76h100q68 0 68 76v991q0 76 -78 76h-92q-76 0 -76 -76v-991zM471 1561v204h164v-204h-164z" />
<glyph unicode="&#xf7;" horiz-adv-x="901" d="M51 614v177h799v-177h-799zM346 231v252h209v-252h-209zM346 934v252h209v-252h-209z" />
<glyph unicode="&#xf8;" horiz-adv-x="823" d="M82 250v969q0 251 235 251h185l22 123h92l-24 -133q149 -40 149 -241v-969q0 -250 -237 -250h-187l-22 -123h-92l24 133q-145 44 -145 240zM279 279l188 1013h-102q-86 0 -86 -86v-927zM350 178h117q78 0 78 86v946z" />
<glyph unicode="&#xf9;" horiz-adv-x="802" d="M92 281v1189h197v-1196q0 -49 20 -72.5t66 -23.5h49q90 0 90 96v1196h197v-1191q0 -279 -281 -279h-59q-279 0 -279 281zM211 1802h180l94 -262h-139z" />
<glyph unicode="&#xfa;" horiz-adv-x="802" d="M92 281v1189h197v-1196q0 -49 20 -72.5t66 -23.5h49q90 0 90 96v1196h197v-1191q0 -279 -281 -279h-59q-279 0 -279 281zM324 1520l94 262h180l-135 -262h-139z" />
<glyph unicode="&#xfb;" horiz-adv-x="802" d="M92 281v1189h197v-1196q0 -49 20 -72.5t66 -23.5h49q90 0 90 96v1196h197v-1191q0 -279 -281 -279h-59q-279 0 -279 281zM162 1561l176 229h123l176 -229h-152l-86 118l-86 -118h-151z" />
<glyph unicode="&#xfc;" horiz-adv-x="802" d="M92 281v1189h197v-1196q0 -49 20 -72.5t66 -23.5h49q90 0 90 96v1196h197v-1191q0 -279 -281 -279h-59q-279 0 -279 281zM184 1561v204h164v-204h-164zM471 1561v204h164v-204h-164z" />
<glyph unicode="&#xfd;" horiz-adv-x="716" d="M20 1470h195l147 -639h7l133 639h194l-237 -929v-541h-197v541zM270 1540l95 262h180l-135 -262h-140z" />
<glyph unicode="&#xfe;" horiz-adv-x="772" d="M92 0v1470h195v-245h190q234 0 234 -252v-264q0 -248 -238 -248h-184v-461h-197zM289 639h147q78 0 78 86v236q0 86 -88 86h-137v-408z" />
<glyph unicode="&#xff;" horiz-adv-x="716" d="M20 1470h195l147 -639h7l133 639h194l-237 -929v-541h-197v541zM133 1561v204h164v-204h-164zM420 1561v204h164v-204h-164z" />
<glyph unicode="&#x152;" horiz-adv-x="1095" d="M82 252v967q0 251 235 251h738v-180h-291v-444h258v-178h-258v-490h291v-178h-738q-235 0 -235 252zM279 264q0 -86 88 -86h125q77 0 77 88v938q0 88 -88 88h-116q-86 0 -86 -86v-942z" />
<glyph unicode="&#x153;" horiz-adv-x="1095" d="M82 252v967q0 251 235 251h738v-180h-291v-444h258v-178h-258v-490h291v-178h-738q-235 0 -235 252zM279 264q0 -86 88 -86h125q77 0 77 88v938q0 88 -88 88h-116q-86 0 -86 -86v-942z" />
<glyph unicode="&#x178;" horiz-adv-x="716" d="M20 1470h195l147 -639h7l133 639h194l-237 -929v-541h-197v541zM133 1567v205h164v-205h-164zM420 1567v205h164v-205h-164z" />
<glyph unicode="&#x2c6;" horiz-adv-x="655" d="M86 1151l176 229h123l176 -229h-151l-86 119l-86 -119h-152z" />
<glyph unicode="&#x2dc;" horiz-adv-x="602" d="M80 1151q0 83 40.5 128t104.5 50q26 0 69.5 -20.5t67.5 -20.5q49 11 52 58h106q-1 -88 -46.5 -135.5t-111.5 -49.5q-33 0 -74.5 20.5t-58.5 20.5q-40 0 -49 -51h-100z" />
<glyph unicode="&#x2000;" horiz-adv-x="915" />
<glyph unicode="&#x2001;" horiz-adv-x="1831" />
<glyph unicode="&#x2002;" horiz-adv-x="915" />
<glyph unicode="&#x2003;" horiz-adv-x="1831" />
<glyph unicode="&#x2004;" horiz-adv-x="610" />
<glyph unicode="&#x2005;" horiz-adv-x="457" />
<glyph unicode="&#x2006;" horiz-adv-x="305" />
<glyph unicode="&#x2007;" horiz-adv-x="305" />
<glyph unicode="&#x2008;" horiz-adv-x="228" />
<glyph unicode="&#x2009;" horiz-adv-x="366" />
<glyph unicode="&#x200a;" horiz-adv-x="101" />
<glyph unicode="&#x2010;" horiz-adv-x="491" d="M20 641v164h451v-164h-451z" />
<glyph unicode="&#x2011;" horiz-adv-x="491" d="M20 641v164h451v-164h-451z" />
<glyph unicode="&#x2012;" horiz-adv-x="491" d="M20 641v164h451v-164h-451z" />
<glyph unicode="&#x2013;" horiz-adv-x="604" d="M0 659v146h604v-146h-604z" />
<glyph unicode="&#x2014;" horiz-adv-x="962" d="M0 659v146h963v-146h-963z" />
<glyph unicode="&#x2018;" horiz-adv-x="329" d="M61 1014v194l99 265h119l-95 -265h97v-276h-138q-82 0 -82 82z" />
<glyph unicode="&#x2019;" horiz-adv-x="309" d="M29 1196v277h137q82 0 82 -82v-195l-98 -264h-119l94 264h-96z" />
<glyph unicode="&#x201a;" horiz-adv-x="329" d="M29 -41v277h137q82 0 82 -82v-195l-98 -264h-119l94 264h-96z" />
<glyph unicode="&#x201c;" horiz-adv-x="653" d="M61 1014v194l99 265h119l-95 -265h97v-276h-138q-82 0 -82 82zM385 1014v194l98 265h119l-94 -265h96v-276h-137q-82 0 -82 82z" />
<glyph unicode="&#x201d;" horiz-adv-x="653" d="M49 1196v277h137q82 0 82 -82v-195l-98 -264h-119l94 264h-96zM375 1196v277h137q82 0 82 -82v-195l-98 -264h-119l94 264h-96z" />
<glyph unicode="&#x201e;" horiz-adv-x="653" d="M49 -41v277h137q82 0 82 -82v-195l-98 -264h-119l94 264h-96zM375 -41v277h137q82 0 82 -82v-195l-98 -264h-119l94 264h-96z" />
<glyph unicode="&#x2022;" horiz-adv-x="393" d="M0 596v373h270v-373h-270z" />
<glyph unicode="&#x2026;" horiz-adv-x="1282" d="M82 0v250h209v-250h-209zM537 0v250h208v-250h-208zM991 0v250h209v-250h-209z" />
<glyph unicode="&#x202f;" horiz-adv-x="366" />
<glyph unicode="&#x2039;" horiz-adv-x="448" d="M41 713l176 344h170l-172 -344l172 -344h-170z" />
<glyph unicode="&#x203a;" horiz-adv-x="448" d="M61 369l172 344l-172 344h170l177 -344l-177 -344h-170z" />
<glyph unicode="&#x205f;" horiz-adv-x="457" />
<glyph unicode="&#x20ac;" horiz-adv-x="751" d="M20 610v103h72v82h-72v102h72v324q0 249 236 249h127q235 0 235 -249v-207h-196v207q0 86 -88 86h-39q-78 0 -78 -86v-324h231l-37 -102h-194v-82h166l-37 -103h-129v-360q0 -86 78 -86h49q78 0 78 86v135h196v-135q0 -250 -235 -250h-127q-236 0 -236 250v360h-72z" />
<glyph unicode="&#x2122;" horiz-adv-x="1214" d="M61 1343v127h388v-127h-117v-659h-156v659h-115zM547 684v786h174l119 -460l118 460h175v-786h-156l10 492l-100 -365h-94l-101 365l10 -492h-155z" />
<glyph unicode="&#x25fc;" horiz-adv-x="1474" d="M0 0v1475h1475v-1475h-1475z" />
<glyph unicode="&#xfb01;" horiz-adv-x="970" d="M92 0v1470h787v-1470h-197v1292h-393v-446h258v-178h-258v-668h-197z" />
<glyph unicode="&#xfb02;" horiz-adv-x="1169" d="M92 0v1470h787v-1292h270v-178h-467v1292h-393v-446h258v-178h-258v-668h-197z" />
</font>
</defs>
</svg>
